<svg width="424" height="424" viewBox="0 0 424 424" fill="none" xmlns="http://www.w3.org/2000/svg">
<circle cx="211.788" cy="211.788" r="209.288" fill="white" stroke="black" stroke-width="5"/>
<g filter="url(#filter0_di_5_2)">
<path fill-rule="evenodd" clip-rule="evenodd" d="M327.161 203.902C335.638 198.035 343.303 190.619 348.821 182.265C356.481 170.667 361.024 157.292 362.012 143.428C363 129.564 360.4 115.68 354.461 103.113C348.523 90.5464 339.555 79.8168 328.217 71.7778L325.196 70C333.717 78.2778 342.11 111.083 342.449 125.988C342.789 140.894 340.196 163 331.467 167.5C314.758 177.658 302.745 192.423 296.601 210.842C293.189 208.827 290.025 206.367 287.199 203.503C281.563 197.792 277.551 190.758 275.478 183.124C275.472 182.744 275.471 182.364 275.475 181.984C275.565 172.944 278.365 163.711 283.342 156.206C287.769 149.532 293.832 144.142 300.916 140.527C301.473 140.313 302.025 140.09 302.573 139.857C311.827 135.92 319.696 129.276 325.129 120.776C327.987 116.304 330.097 111.436 331.408 106.363C332.755 101.154 333.261 95.7294 332.874 90.2942C333.242 95.463 331.768 100.691 329.514 105.7C327.426 110.338 324.67 114.788 322.086 118.831C317.628 125.805 311.403 131.433 304.084 135.167C303.493 135.394 302.908 135.631 302.328 135.88C301.353 136.297 300.394 136.744 299.451 137.22L299.437 137.226L299.437 137.227C291.732 141.124 285.138 146.965 280.333 154.21C277.132 159.036 274.813 164.351 273.447 169.908C271.642 159.379 267.768 149.298 262.033 140.254C255.568 130.058 247.729 121.912 237.5 115.5C229.872 110.907 220.58 108.099 211.676 108.003C202.772 107.907 194.226 110.073 186.5 114.5C185.917 114.844 185.342 115.194 184.774 115.55C174.772 121.809 167.134 129.763 160.677 139.797C154.367 149.603 150.258 160.647 148.617 172.169C147.26 166.517 144.919 161.111 141.668 156.21C136.862 148.965 130.269 143.124 122.563 139.227L122.563 139.226L122.55 139.221C121.607 138.744 120.647 138.297 119.673 137.88C119.092 137.631 118.507 137.394 117.916 137.167C110.597 133.432 104.372 127.805 99.9142 120.831C97.3305 116.788 94.5739 112.338 92.4866 107.7C90.232 102.691 88.7582 97.463 89.1264 92.2942C88.7392 97.7294 89.2452 103.154 90.5918 108.363C91.9035 113.436 94.0127 118.304 96.8711 122.776C102.304 131.276 110.173 137.92 119.428 141.857C119.975 142.09 120.527 142.313 121.084 142.527C128.168 146.142 134.231 151.532 138.658 158.206C143.834 166.01 146.523 175.191 146.383 184.54C144.104 191.986 139.963 198.801 134.268 204.297C131.648 206.825 129.105 208.95 126.493 210.696C120.312 192.448 108.347 177.813 91.75 167.722C83.0211 163.222 80.4277 141.117 80.7675 126.211C81.1072 111.305 89.5001 78.4999 98.0211 70.2222L95.0001 71.9999C83.6617 80.039 74.6942 90.7685 68.7558 103.335C62.8173 115.902 60.2167 129.786 61.2046 143.65C62.1926 157.514 66.7357 170.89 74.396 182.487C80.2338 191.325 87.732 198.904 96.4415 204.82L96.424 204.855C96.5137 204.9 96.6034 204.945 96.6929 204.99C99.3353 206.771 102.088 208.399 104.939 209.863L104.977 209.842C107.847 211.772 110.586 213.894 113.175 216.194C110.946 216.627 108.571 216.893 106 217H100C98.8956 217 98.0001 217.895 98.0001 219C98.0001 220.105 98.8956 221 100 221H104C117 221.5 127.624 215.888 136.856 206.979C143.016 201.033 147.495 193.659 149.955 185.602L149.969 185.602L149.97 185.583L149.971 185.55C151.086 181.886 151.783 178.081 152.032 174.205C153.343 162.371 157.395 151.863 163.847 141.837C170.352 131.727 177.648 124.114 188 118C188.581 117.667 189.169 117.347 189.764 117.038C196.49 113.551 204.065 111.647 211.636 111.729C219.211 111.811 227.483 114.295 234.254 117.998C234.442 118.101 234.629 118.205 234.814 118.309C235.347 118.645 235.875 118.987 236.399 119.335C245.402 125.317 253.053 133.13 258.85 142.272C264.894 151.804 268.77 162.545 270.21 173.734C270.236 174.211 270.269 174.687 270.308 175.162C271.281 186.809 276.308 197.772 284.547 206.121C292.786 214.47 303.682 219.641 315.315 220.767C315.599 220.795 315.883 220.82 316.168 220.842L316.168 220.907L317.068 220.906C317.148 220.911 317.228 220.915 317.307 220.92L317.31 220.92L317.31 220.906L322.002 220.9C323.052 220.899 323.901 220.047 323.9 218.998C323.899 217.948 323.047 217.099 321.998 217.1L316.212 217.107C313.97 216.916 311.756 216.563 309.585 216.055C312.037 213.811 314.629 211.729 317.344 209.823C320.57 208.148 323.755 206.239 326.835 204.126L327.005 204.041C327.065 204.011 327.125 203.981 327.185 203.95L327.161 203.902ZM326.901 71.2863C326.38 70.8655 325.814 70.4382 325.196 70L326.901 71.2863ZM325.644 200.869L325.778 200.775L325.911 200.681L325.644 200.867L325.644 200.869ZM192.123 229.815L192.101 229.821C198.996 249.236 201.22 270.035 198.552 290.526C195.685 312.544 187.266 333.459 174.101 351.312C173.848 351.655 173.593 351.997 173.336 352.338C173.428 355.891 174.21 359.398 175.644 362.661C177.296 366.421 179.772 369.762 182.889 372.437C186.006 375.112 189.684 377.052 193.651 378.115C194.194 378.26 194.739 378.389 195.288 378.5L224 378.5V378.564C224.644 378.442 225.285 378.296 225.921 378.126C229.895 377.069 233.58 375.131 236.703 372.456C239.827 369.781 242.309 366.438 243.965 362.675C245.403 359.407 246.187 355.896 246.279 352.338C246.022 351.997 245.767 351.655 245.514 351.312C232.349 333.459 223.93 312.544 221.063 290.526C218.395 270.035 220.619 249.236 227.513 229.821L227.492 229.815C227.972 228.212 228.531 226.637 229.166 225.097C231.341 219.82 234.41 214.942 238.247 210.683C243.205 205.181 249.323 200.849 256.159 198C251.589 199.904 248.127 204.353 244.828 208.594L244.828 208.594C243.565 210.216 242.326 211.808 241.058 213.216C237.871 216.753 235.258 220.751 233.302 225.065L233.412 225.11C224.936 245.632 221.984 268.016 224.851 290.033C227.717 312.039 236.295 332.91 249.732 350.571L249.751 350.596L249.754 350.596C249.777 351.264 249.777 351.931 249.757 352.597C249.633 356.549 248.752 360.447 247.154 364.078C245.287 368.32 242.49 372.088 238.969 375.102C235.449 378.117 231.295 380.301 226.817 381.493C222.983 382.513 218.996 382.784 215.072 382.298C214.432 382.219 213.793 382.12 213.157 382H206.454L206.454 382.001L206.444 382.003C205.79 382.125 205.134 382.226 204.477 382.306C201.331 382.689 198.146 382.585 195.033 382H195V381.994C194.245 381.851 193.495 381.68 192.75 381.48C188.278 380.282 184.133 378.095 180.62 375.081C177.107 372.066 174.317 368.301 172.454 364.063C170.861 360.436 169.982 356.543 169.858 352.597C169.837 351.931 169.838 351.264 169.86 350.596L169.863 350.596L169.883 350.571C183.32 332.91 191.898 312.039 194.764 290.033C197.631 268.016 194.679 245.632 186.202 225.11L186.313 225.065C184.357 220.751 181.744 216.753 178.557 213.216C177.278 211.797 176.033 210.19 174.765 208.554C171.666 204.557 168.431 200.382 164.238 198.334C170.759 201.182 176.6 205.392 181.368 210.683C185.205 214.942 188.273 219.819 190.449 225.097C191.084 226.637 191.643 228.212 192.123 229.815ZM164.238 198.334C163.993 198.227 163.747 198.122 163.5 198.019L163.493 198.016L163.456 198H163.5C163.749 198.104 163.995 198.215 164.238 198.334ZM206.506 366.588C207.704 368.235 210.16 368.235 211.358 366.588L220.436 354.103C221.878 352.12 220.462 349.338 218.01 349.338H199.854C197.402 349.338 195.986 352.12 197.428 354.103L206.506 366.588ZM100.947 227.179H95C93.8954 227.179 93 226.283 93 225.179C93 224.074 93.8954 223.179 95 223.179H108C108.144 223.179 108.285 223.194 108.42 223.223C126.465 222.624 144.268 228.082 158.934 238.835C174.021 249.896 184.763 265.808 189.421 283.814C189.463 283.908 189.498 284.006 189.526 284.108L191.474 291.249C191.764 292.315 191.136 293.414 190.07 293.705C189.005 293.995 187.905 293.367 187.615 292.302L186.186 287.061C184.742 283.902 182.59 282.981 179.927 281.841L179.907 281.833C179.784 281.78 179.66 281.727 179.535 281.673C177.548 280.818 175.076 280.258 172.698 280.177L171.824 280.242C167.829 281.133 163.697 281.222 159.667 280.502C155.637 279.783 151.791 278.27 148.35 276.052C144.91 273.833 141.945 270.954 139.627 267.58C138.058 265.295 136.897 263.402 136.051 261.174L136.045 261.178L136.032 261.124C135.65 260.111 135.333 259.028 135.072 257.807C132.707 250.733 128.502 244.363 123.128 239.137C116.987 233.166 109.306 229.026 100.947 227.179ZM231.124 283.636C231.082 283.729 231.046 283.828 231.019 283.93L229.071 291.071C228.78 292.136 229.409 293.236 230.474 293.526C231.54 293.817 232.639 293.189 232.93 292.123L234.513 286.317C234.53 286.284 234.547 286.251 234.564 286.218C234.588 286.172 234.611 286.127 234.635 286.083C236.07 283.4 238.111 282.527 240.597 281.463L240.821 281.367L240.989 281.295C243.569 280.185 246.391 279.797 249.157 280.158C249.666 280.264 250.177 280.357 250.69 280.437L250.711 280.442L250.711 280.44C254.079 280.962 257.514 280.924 260.878 280.324C264.908 279.605 268.754 278.092 272.194 275.873C275.635 273.655 278.6 270.775 280.918 267.401C282.487 265.117 283.648 263.224 284.494 260.996L284.5 261L284.513 260.946C284.895 259.933 285.212 258.85 285.473 257.628C287.838 250.555 292.043 244.184 297.417 238.959C303.557 232.988 311.239 228.848 319.598 227H325.545C326.649 227 327.545 226.105 327.545 225C327.545 223.896 326.649 223 325.545 223H312.545C312.401 223 312.26 223.015 312.124 223.044C294.08 222.446 276.277 227.904 261.611 238.656C246.524 249.717 235.782 265.629 231.124 283.636Z" fill="black"/>
</g>
<defs>
<filter id="filter0_di_5_2" x="61" y="70" width="303.217" height="314.533" filterUnits="userSpaceOnUse" color-interpolation-filters="sRGB">
<feFlood flood-opacity="0" result="BackgroundImageFix"/>
<feColorMatrix in="SourceAlpha" type="matrix" values="0 0 0 0 0 0 0 0 0 0 0 0 0 0 0 0 0 0 127 0" result="hardAlpha"/>
<feOffset dx="1" dy="1"/>
<feGaussianBlur stdDeviation="0.5"/>
<feComposite in2="hardAlpha" operator="out"/>
<feColorMatrix type="matrix" values="0 0 0 0 1 0 0 0 0 1 0 0 0 0 1 0 0 0 0.8 0"/>
<feBlend mode="normal" in2="BackgroundImageFix" result="effect1_dropShadow_5_2"/>
<feBlend mode="normal" in="SourceGraphic" in2="effect1_dropShadow_5_2" result="shape"/>
<feColorMatrix in="SourceAlpha" type="matrix" values="0 0 0 0 0 0 0 0 0 0 0 0 0 0 0 0 0 0 127 0" result="hardAlpha"/>
<feOffset dx="1" dy="1"/>
<feGaussianBlur stdDeviation="2"/>
<feComposite in2="hardAlpha" operator="arithmetic" k2="-1" k3="1"/>
<feColorMatrix type="matrix" values="0 0 0 0 0.133333 0 0 0 0 0.133333 0 0 0 0 0.133333 0 0 0 0.4 0"/>
<feBlend mode="normal" in2="shape" result="effect2_innerShadow_5_2"/>
</filter>
</defs>
</svg>
